# xmcd CD database file
#
# Track frame offsets:
#	150
#	25936
#	51700
#	71186
#	92858
#	114253
#	144149
#	171018
#	192623
#	212592
#	234687
#
# Disc length: 3343 seconds
#
# Revision: 0
# Processed by: cddbd v1.5.2PL0 Copyright (c) Steve Scherf et al.
# Submitted via: CDex 1.70beta2
#
DISCID=a20d0d0b
DTITLE=Archie Lee Hooker - Archie Lee Hooker's Best
DYEAR=1996
DGENRE=Blues
TTITLE0=Church Of The Blues
TTITLE1=Fast Driving-Fast Talking
TTITLE2=First Time I Lost You
TTITLE3=River Blues
TTITLE4=I Lost A Good Woman
TTITLE5=Feel Like Moanin'
TTITLE6=Sharecropper's Son
TTITLE7=Blues Outlaw
TTITLE8=Mambo Chillum
TTITLE9=Hobo
TTITLE10=Mississippi Funk
EXTD=YEAR: 1996
EXTT0=
EXTT1=
EXTT2=
EXTT3=
EXTT4=
EXTT5=
EXTT6=
EXTT7=
EXTT8=
EXTT9=
EXTT10=
PLAYORDER=
